<svg xmlns="http://www.w3.org/2000/svg" viewBox="0 0 64 64">
  <defs>
    <linearGradient id="body" x1="0" y1="0" x2="0" y2="1">
      <stop offset="0%" stop-color="#4488ff"/>
      <stop offset="100%" stop-color="#0044cc"/>
    </linearGradient>
    <linearGradient id="flame" x1="0" y1="0" x2="0" y2="1">
      <stop offset="0%" stop-color="#ff6600"/>
      <stop offset="100%" stop-color="#ffcc00"/>
    </linearGradient>
  </defs>
  <polygon points="32,4 52,48 44,48 44,60 20,60 20,48 12,48" fill="url(#body)"/>
  <polygon points="32,4 52,48 44,48 44,60 20,60 20,48 12,48" fill="none" stroke="#88bbff" stroke-width="1" opacity="0.5"/>
  <rect x="28" y="28" width="8" height="16" rx="2" fill="#88bbff" opacity="0.3"/>
  <polygon points="24,56 32,48 40,56" fill="url(#flame)" opacity="0.9"/>
  <polygon points="28,56 32,50 36,56" fill="#ff8800" opacity="0.7"/>
  <circle cx="32" cy="20" r="4" fill="#88bbff" opacity="0.4"/>
  <circle cx="22" cy="38" r="2" fill="#ff4444" opacity="0.6"/>
  <circle cx="42" cy="38" r="2" fill="#44ff44" opacity="0.6"/>
  <circle cx="22" cy="42" r="1.5" fill="#ff4444" opacity="0.4"/>
  <circle cx="42" cy="42" r="1.5" fill="#44ff44" opacity="0.4"/>
</svg>
